<svg width="360" height="294" viewBox="0 0 360 294" fill="none" xmlns="http://www.w3.org/2000/svg">
<g clip-path="url(#clip0_3_42)">
<path d="M287.865 95.6824V147.323C283.629 149.628 280.609 153.82 279.656 158.724C273.989 190.24 273.989 190.24 245 193.942C236.775 195.068 230.886 201.738 230.886 209.785C230.886 212.113 231.455 214.435 232.212 216.723H174.296L138.514 248.851C134.604 252.463 132.141 254.253 128.724 254.253C123.893 254.253 120.928 250.759 120.928 245.432V216.723H115.315C87.5827 216.723 72.1356 201.052 72.1356 173.696V95.6824C72.1356 68.3248 87.5827 52.5719 115.315 52.5719H244.685C272.417 52.5719 287.865 68.4114 287.865 95.6824ZM161.523 78.7993C150.689 78.7993 144.915 84.5322 144.915 95.2526V116.466H134.819C126.779 116.466 122.003 121.029 122.003 128.776V170.273C122.003 180.449 128.029 186.336 138.869 186.336H221.404C232.238 186.336 238.001 180.603 238.001 169.883V95.2526C238.001 84.5322 232.238 78.7993 221.404 78.7993H161.523ZM144.915 169.376C144.915 173.031 142.331 175.565 138.869 175.565C135.375 175.565 132.791 172.935 132.791 169.376V130.638C132.791 128.539 134.128 127.226 136.253 127.226H144.915V169.376ZM227.224 96.4388V168.696C227.224 173.256 224.915 175.565 220.409 175.565H154.392C155.259 173.98 155.703 172.161 155.703 169.984V96.4388C155.703 91.8905 158 89.5706 162.518 89.5706H220.409C224.915 89.5706 227.224 91.8905 227.224 96.4388ZM170.898 137.389C167.053 137.389 164.665 139.774 164.665 143.592V154.7C164.665 158.538 167.053 160.922 170.898 160.922H182.793C186.681 160.922 189.069 158.538 189.069 154.7V143.592C189.069 139.774 186.681 137.389 182.793 137.389H170.898ZM197.737 154.165C195.794 154.165 194.321 155.7 194.321 157.607C194.321 159.439 195.775 160.922 197.737 160.922H214.771C216.682 160.922 218.135 159.439 218.135 157.607C218.135 155.7 216.682 154.165 214.771 154.165H197.737ZM197.737 137.389C195.775 137.389 194.321 138.872 194.321 140.789C194.321 142.645 195.794 144.096 197.737 144.096H214.771C216.682 144.096 218.135 142.645 218.135 140.789C218.135 138.872 216.682 137.389 214.771 137.389H197.737ZM168.188 120.512C166.234 120.512 164.74 122.003 164.74 123.911C164.74 125.787 166.214 127.226 168.188 127.226H214.782C216.712 127.226 218.165 125.787 218.165 123.911C218.165 122.003 216.693 120.512 214.782 120.512H168.188ZM168.188 103.674C166.214 103.674 164.74 105.125 164.74 107.001C164.74 108.897 166.234 110.4 168.188 110.4H214.782C216.693 110.4 218.165 108.897 218.165 107.001C218.165 105.125 216.712 103.674 214.782 103.674H168.188Z" fill="#232634"/>
<path d="M295.485 261.932C297.491 261.932 298.949 260.598 299.324 258.725C305.662 223.624 308.338 218.277 344.342 213.531C346.427 213.239 347.885 211.784 347.885 209.785C347.885 207.829 346.427 206.374 344.342 206.082C308.338 201.336 304.463 195.659 299.324 161.053C299.032 159.097 297.491 157.599 295.485 157.599C293.478 157.599 292.063 159.015 291.689 160.971C285.391 196.071 282.632 201.336 246.628 206.082C244.46 206.374 243.128 207.829 243.128 209.785C243.128 211.784 244.46 213.239 246.628 213.531C282.549 218.277 286.423 223.624 291.689 258.643C291.981 260.598 293.314 261.932 295.485 261.932ZM250.833 281.778C252.296 281.778 253.545 280.696 253.837 279.236C256.718 262.85 255.768 261.724 273.975 259.131C275.564 258.839 276.56 257.549 276.56 256.176C276.56 254.676 275.564 253.468 273.975 253.177C255.768 250.336 256.718 249.253 253.837 233.236C253.545 231.611 252.378 230.529 250.833 230.529C249.206 230.529 248.205 231.529 247.831 233.236C244.866 249.253 245.86 250.336 227.736 253.177C226.065 253.468 225.107 254.676 225.107 256.176C225.107 257.713 226.065 258.839 227.858 259.131C245.86 261.724 244.866 262.85 247.831 278.988C248.205 280.614 249.123 281.778 250.833 281.778Z" fill="#7287FD"/>
</g>
<defs>
<clipPath id="clip0_3_42">
<rect width="360" height="294" fill="white"/>
</clipPath>
</defs>
</svg>
